# xmcd CD database file
# Copyright (C) 1995-1998 Ti Kan
#
# Track frame offsets:
#	150
#	10140
#	21935
#	31337
#	42332
#	53392
#	62430
#	72637
#	84137
#	95112
#	107405
#	118505
#	130900
#	141770
#	151447
#	160972
#	173145
#	183410
#	194675
#	204752
#	216532
#	227212
#	238460
#	248792
#	261355
#	273375
#	285970
#	297355
#	310037
#	319975
#
# Disc length: 4536 seconds
#
# Revision: 2
# Processed by: cddbd v1.4PL0 Copyright (c) Steve Scherf et al.
# Submitted via: CDex 1.30Release
#
DISCID=b711b61e
DTITLE=Hank Snow - The Singing Ranger Disc 1 of 4
DYEAR=1990
DGENRE=Country
TTITLE0=Love's Call From the Mountain 1990
TTITLE1=I've Forgotten You 1955
TTITLE2=That Crazy Mambo Thing 1954
TTITLE3=Let Me Go Lover 1955
TTITLE4=The Old Spinning Wheel (Chet Atkins) 1955
TTITLE5=Darktown Strutter's Ball (Chet Atkins) 1990
TTITLE6=Silver Bell (Chet Atkins) 1955
TTITLE7=Under the Double Eagle (Chet Atkins) 1990
TTITLE8=It's You Only You, That I Love (Anita Carter) 1956
TTITLE9=Keep Your Promise, Willie Thomas (Anita Carter) 1956
TTITLE10=Cryin', Prayin', Waitin', Hopin' 1955
TTITLE11=Someone Mentioned Your Name 1990
TTITLE12=I'm Glad I Got to See You Once Again 1955
TTITLE13=Mainliner (The Hawk of the West) 1955
TTITLE14=Cuba Rhumba 1955
TTITLE15=A Scale to Measure Love 1955
TTITLE16=Blue Sea Blue 1955
TTITLE17=Twelfth Street Rag 1954
TTITLE18=Rainbow Boogie 1954
TTITLE19=Vaya Con Dios 1954
TTITLE20=Madison Madness 1954
TTITLE21=Caribbean 1955
TTITLE22=Can't Have You Blues 1955
TTITLE23=Dog Bone 1990
TTITLE24=Born to be Happy 1955
TTITLE25=The Golden Rocket 1950
TTITLE26=Hobo Bill's Last Ride 1951
TTITLE27=Stolen Moments 1953
TTITLE28=Pray 1951
TTITLE29=The Blind Boy's Prayer 1955
EXTD=YEAR: 1990 ID3G:   2
EXTT0=
EXTT1=
EXTT2=
EXTT3=
EXTT4=
EXTT5=
EXTT6=
EXTT7=
EXTT8=
EXTT9=
EXTT10=
EXTT11=
EXTT12=
EXTT13=
EXTT14=
EXTT15=
EXTT16=
EXTT17=
EXTT18=
EXTT19=
EXTT20=
EXTT21=
EXTT22=
EXTT23=
EXTT24=
EXTT25=
EXTT26=
EXTT27=
EXTT28=
EXTT29=
PLAYORDER=
